<svg width="512" height="533" xmlns="http://www.w3.org/2000/svg"><g fill-rule="nonzero" fill="none"><path d="M256 5.0196C114.6615 8.94 2.12008 124.64637 2.12008 266.03923c0 141.39285 112.54142 257.0992 253.87992 261.0196 141.3385-3.9204 253.87992-119.62675 253.87992-261.0196C509.87992 124.64636 397.3385 8.94 256 5.0196zm-50.19608 411.60785c-55.21569 0-99.38823-44.17255-99.38823-99.38823V116.4549h2.00784c26.10196 7.02745 47.18431 25.09804 58.22745 49.19216 1.00392 2.00784 2.00784 5.0196 3.01176 7.02745 3.01177 8.03137 4.0157 17.06667 4.0157 26.10196V316.2353c0 6.02353 1.00391 12.04706 2.00784 18.0706 6.3132 34.8286 30.84887 63.58136 64.25097 75.29411-11.04313 5.0196-22.08627 7.02745-34.13333 7.02745zm104.40785 0c-55.2157 0-99.38824-44.17255-99.38824-99.38823V116.4549h2.00784c26.10196 7.02745 47.18432 25.09804 58.22745 49.19216 1.00392 2.00784 2.00785 5.0196 3.01177 7.02745 3.01176 8.03137 4.01569 17.06667 4.01569 26.10196V316.2353c0 6.02353 0 12.04706 2.00784 18.0706 6.3132 34.8286 30.84888 63.58136 64.25098 75.29411-11.04314 5.0196-23.0902 7.02745-34.13333 7.02745zM409.6 364.42353a100.39215 100.39215 0 01-39.15294 28.1098c-32.1255-11.04313-50.19608-38.14902-57.22353-71.27843 10.03922 3.01177 15.05882 5.01961 26.10196 5.01961 10.03922 0 19.07451-2.00784 28.1098-5.0196 26.10197-8.03138 46.1804-27.10589 58.22745-51.2 2.00785-3.01177 3.01177-7.02746 4.0157-10.03922 0 3.01176 1.00391 6.02353 1.00391 9.03529l1.00393 31.12157c2.00784 24.09412-7.02746 47.18431-22.08628 64.25098z" fill="#ED334C"/><path d="M432.6902 300.17255c1.15804 40.63533-23.35793 77.61023-61.23922 92.36078-32.12549-11.04313-50.19608-38.14902-57.22353-71.27843 10.03922 3.01177 15.05883 5.01961 26.10196 5.01961 10.03922 0 19.07451-2.00784 28.1098-5.0196 26.10197-8.03138 46.1804-27.10589 58.22746-51.2 2.00784-3.01177 3.01176-7.02746 4.01568-10.03922 0 3.01176 1.00393 6.02353 1.00393 9.03529l1.00392 31.12157z" fill="#FFF"/><path d="M343.34118 410.60392c-10.03922 4.01569-22.08628 5.0196-33.12941 5.0196-55.2157 0-99.38824-44.17254-99.38824-99.38823V115.45098h2.00784c26.10196 7.02745 47.18432 25.09804 58.22745 49.19216 1.00392 2.00784 2.00785 5.0196 3.01177 7.02745 3.01176 8.03137 4.01569 17.06667 4.01569 26.10196v117.45882c0 6.02353 0 12.04706 2.00784 18.0706 5.0196 37.14509 30.11765 65.2549 63.24706 77.30195z" fill="#FFF"/><path d="M238.93333 410.60392c-11.04313 4.01569-22.08627 5.0196-33.1294 5.0196-55.2157 0-99.38824-44.17254-99.38824-99.38823V115.45098h2.00784c26.10196 7.02745 47.18431 25.09804 58.22745 49.19216 1.00392 2.00784 2.00784 5.0196 3.01176 7.02745 3.01177 8.03137 4.0157 17.06667 4.0157 26.10196v117.45882c0 6.02353 1.00391 12.04706 2.00784 18.0706 5.0196 37.14509 30.11764 65.2549 63.24705 77.30195z" fill="#FFF"/></g></svg>

